<svg width="200" height="200" viewBox="0 0 200 200" fill="none" xmlns="http://www.w3.org/2000/svg">
<circle cx="100" cy="100" r="95" fill="url(#paint0_radial_34_10)" stroke="url(#paint1_linear_34_10)" stroke-width="10"/>
<path d="M46.502 49.999C46.502 47.3135 47.7227 45.9707 50.1641 45.9707H57.7812C60.2227 45.9707 61.4434 47.3135 61.4434 49.999L59.9053 119.14C59.9053 121.337 58.8066 122.436 56.6094 122.436H51.3359C49.1387 122.436 48.04 121.337 48.04 119.14L46.502 49.999ZM49.8711 151C47.6738 151 46.5752 149.901 46.5752 147.704V138.769C46.5752 136.571 47.6738 135.473 49.8711 135.473H58.0742C60.2715 135.473 61.3701 136.571 61.3701 138.769V147.704C61.3701 149.901 60.2715 151 58.0742 151H49.8711ZM90.4473 49.999C90.4473 47.3135 91.668 45.9707 94.1094 45.9707H101.727C104.168 45.9707 105.389 47.3135 105.389 49.999L103.851 119.14C103.851 121.337 102.752 122.436 100.555 122.436H95.2812C93.084 122.436 91.9854 121.337 91.9854 119.14L90.4473 49.999ZM93.8164 151C91.6191 151 90.5205 149.901 90.5205 147.704V138.769C90.5205 136.571 91.6191 135.473 93.8164 135.473H102.02C104.217 135.473 105.315 136.571 105.315 138.769V147.704C105.315 149.901 104.217 151 102.02 151H93.8164ZM134.393 49.999C134.393 47.3135 135.613 45.9707 138.055 45.9707H145.672C148.113 45.9707 149.334 47.3135 149.334 49.999L147.796 119.14C147.796 121.337 146.697 122.436 144.5 122.436H139.227C137.029 122.436 135.931 121.337 135.931 119.14L134.393 49.999ZM137.762 151C135.564 151 134.466 149.901 134.466 147.704V138.769C134.466 136.571 135.564 135.473 137.762 135.473H145.965C148.162 135.473 149.261 136.571 149.261 138.769V147.704C149.261 149.901 148.162 151 145.965 151H137.762Z" fill="#560009"/>
<defs>
<radialGradient id="paint0_radial_34_10" cx="0" cy="0" r="1" gradientUnits="userSpaceOnUse" gradientTransform="translate(100 100) rotate(90) scale(100)">
<stop stop-color="#FF4053"/>
<stop offset="1" stop-color="#E50017"/>
</radialGradient>
<linearGradient id="paint1_linear_34_10" x1="100" y1="200" x2="100" y2="-1.29342e-05" gradientUnits="userSpaceOnUse">
<stop stop-color="#7E000D"/>
<stop offset="1" stop-color="#B30012"/>
</linearGradient>
</defs>
</svg>
